<svg id="Layer_1" enable-background="new 0 0 512 512" height="512" viewBox="0 0 512 512" width="512" xmlns="http://www.w3.org/2000/svg"><g><g><path d="m462.07 400.756c-5.878-38.082-38.877-67.336-78.58-67.336h-20.823l25.647 178.167h123.686v-42.667c0-31.501-20.755-58.922-49.93-68.164z" fill="#afd7fd"/><path d="m149.333 333.421h-20.823c-39.703 0-72.703 29.253-78.58 67.336-29.171 9.243-49.93 36.664-49.93 68.163v42.667h123.687z" fill="#c4e2fe"/></g><g><path d="m203.333 260.143-79.646 74.254v177.191h65.485z" fill="#ff5645"/><path d="m308.667 260.143 79.647 74.254v177.191h-65.486z" fill="#ff3a3b"/><g><path d="m256 404.921 66.829-25.667v-204.666l-66.829-25.667-10.667 128z" fill="#4980fa"/><path d="m189.172 379.254 66.828 25.667v-256l-66.828 25.667z" fill="#5393fb"/></g><g><path d="m256 511.588h66.829v-132.334h-66.829l-10.667 57.668z" fill="#efe2dd"/><path d="m189.172 379.254h66.828v132.333h-66.828z" fill="#f7f0eb"/></g><g><path d="m256 .413-10.667 95.174 10.667 79.001h66.829v-111.871z" fill="#efe2dd"/><path d="m189.172 174.588h66.828v-174.175l-66.828 62.304z" fill="#f7f0eb"/></g></g></g></svg>