<?xml version="1.0" encoding="iso-8859-1"?>
<!-- Generator: Adobe Illustrator 19.0.0, SVG Export Plug-In . SVG Version: 6.00 Build 0)  -->
<svg version="1.1" id="Capa_1" xmlns="http://www.w3.org/2000/svg" xmlns:xlink="http://www.w3.org/1999/xlink" x="0px" y="0px"
	 viewBox="0 0 512 512" style="enable-background:new 0 0 512 512;" xml:space="preserve">
<g>
	<g>
		<path d="M443.733,0H68.267C30.564,0,0,30.564,0,68.267v375.467C0,481.436,30.564,512,68.267,512h375.467
			C481.436,512,512,481.436,512,443.733V68.267C512,30.564,481.436,0,443.733,0z M409.954,415.864
			C368.6,455.686,313.41,477.912,256,477.867C133.525,477.726,34.274,378.475,34.133,256c0.001-12.391,1.029-24.762,3.072-36.983
			c1.485-9.308,10.235-15.649,19.543-14.164c9.308,1.485,15.649,10.235,14.164,19.543c-0.016,0.102-0.033,0.203-0.051,0.305
			c-17.38,102.311,51.47,199.339,153.781,216.719s199.339-51.47,216.719-153.781c17.38-102.311-51.47-199.339-153.781-216.719
			c-62.919-10.688-126.962,11.29-170.059,58.361l75.605,25.19c8.954,2.979,13.799,12.652,10.82,21.606
			c-2.979,8.954-12.652,13.799-21.606,10.82l-102.4-34.133c-6.984-2.326-11.69-8.869-11.674-16.23v-102.4
			c0-9.426,7.641-17.067,17.067-17.067S102.4,24.708,102.4,34.133v62.344c88.196-84.929,228.541-82.28,313.47,5.916
			S498.15,330.935,409.954,415.864z" fill="#ffffff"/>
	</g>
</g>
<g>
</g>
<g>
</g>
<g>
</g>
<g>
</g>
<g>
</g>
<g>
</g>
<g>
</g>
<g>
</g>
<g>
</g>
<g>
</g>
<g>
</g>
<g>
</g>
<g>
</g>
<g>
</g>
<g>
</g>
</svg>
