<svg id="Layer_1" enable-background="new 0 0 512 512" height="512" viewBox="0 0 512 512" width="512" xmlns="http://www.w3.org/2000/svg" fill="#ffffff" ><g><path d="m512 468.921c0-31.501-20.756-58.922-49.931-68.164-4.274-27.689-22.892-50.698-47.994-61.201v172.032h97.925z"/><path d="m97.924 339.556c-25.101 10.503-43.72 33.511-47.994 61.201-29.171 9.243-49.93 36.665-49.93 68.164v42.667h97.924z"/><path d="m384.076 304.778-37.626-35.079v241.889h37.626z"/><path d="m165.551 269.699-37.627 35.079v206.81h37.627z"/><path d="m195.551 56.77v87.818h120.899v-87.818l-60.45-56.357z"/><path d="m195.551 174.588h120.899v204.667h-120.899z"/><path d="m195.551 409.254h120.899v102.334h-120.899z"/></g></svg>